<mxfile host="app.diagrams.net" agent="Mozilla/5.0 (Windows NT 10.0; Win64; x64) AppleWebKit/537.36 (KHTML, like Gecko) Chrome/136.0.0.0 Safari/537.36" version="27.0.4">
  <diagram id="C5RBs43oDa-KdzZeNtuy" name="Page-1">
    <mxGraphModel dx="1453" dy="775" grid="1" gridSize="10" guides="1" tooltips="1" connect="1" arrows="1" fold="1" page="1" pageScale="1" pageWidth="827" pageHeight="1169" math="0" shadow="0">
      <root>
        <mxCell id="WIyWlLk6GJQsqaUBKTNV-0" />
        <mxCell id="WIyWlLk6GJQsqaUBKTNV-1" parent="WIyWlLk6GJQsqaUBKTNV-0" />
        <mxCell id="idaOG2yB8s-ihM_PC1pQ-0" value="&lt;h4&gt;&lt;font style=&quot;font-size: 17px;&quot; face=&quot;Verdana&quot;&gt;Médicos&amp;nbsp; &amp;nbsp; &amp;nbsp;&lt;/font&gt;&lt;/h4&gt;" style="rounded=1;whiteSpace=wrap;html=1;fontFamily=poppins;align=right;" vertex="1" parent="WIyWlLk6GJQsqaUBKTNV-1">
          <mxGeometry x="313" y="350" width="200" height="75" as="geometry" />
        </mxCell>
        <mxCell id="idaOG2yB8s-ihM_PC1pQ-4" value="" style="endArrow=none;html=1;rounded=0;entryX=0.3;entryY=0;entryDx=0;entryDy=0;entryPerimeter=0;" edge="1" parent="WIyWlLk6GJQsqaUBKTNV-1" target="idaOG2yB8s-ihM_PC1pQ-0">
          <mxGeometry width="50" height="50" relative="1" as="geometry">
            <mxPoint x="373" y="425" as="sourcePoint" />
            <mxPoint x="493" y="375" as="targetPoint" />
            <Array as="points">
              <mxPoint x="373" y="375" />
            </Array>
          </mxGeometry>
        </mxCell>
        <mxCell id="idaOG2yB8s-ihM_PC1pQ-5" value="" style="shape=umlActor;verticalLabelPosition=bottom;verticalAlign=top;html=1;outlineConnect=0;" vertex="1" parent="WIyWlLk6GJQsqaUBKTNV-1">
          <mxGeometry x="329" y="357.5" width="30" height="60" as="geometry" />
        </mxCell>
        <mxCell id="idaOG2yB8s-ihM_PC1pQ-6" value="&lt;div style=&quot;line-height: 100%;&quot;&gt;&lt;br&gt;&lt;/div&gt;" style="rounded=1;whiteSpace=wrap;html=1;arcSize=16;align=center;" vertex="1" parent="WIyWlLk6GJQsqaUBKTNV-1">
          <mxGeometry x="331" y="70" width="165" height="100" as="geometry" />
        </mxCell>
        <mxCell id="idaOG2yB8s-ihM_PC1pQ-7" value="" style="endArrow=none;html=1;rounded=0;entryX=0.002;entryY=0.277;entryDx=0;entryDy=0;entryPerimeter=0;exitX=1;exitY=0.28;exitDx=0;exitDy=0;exitPerimeter=0;" edge="1" parent="WIyWlLk6GJQsqaUBKTNV-1">
          <mxGeometry width="50" height="50" relative="1" as="geometry">
            <mxPoint x="495.9999999999998" y="98" as="sourcePoint" />
            <mxPoint x="331.3299999999999" y="97.70000000000005" as="targetPoint" />
          </mxGeometry>
        </mxCell>
        <mxCell id="idaOG2yB8s-ihM_PC1pQ-8" value="Especialidades" style="text;html=1;align=center;verticalAlign=middle;whiteSpace=wrap;rounded=0;fontFamily=Verdana;fontStyle=1" vertex="1" parent="WIyWlLk6GJQsqaUBKTNV-1">
          <mxGeometry x="383" y="70" width="60" height="30" as="geometry" />
        </mxCell>
        <mxCell id="idaOG2yB8s-ihM_PC1pQ-10" value="&lt;div&gt;&lt;font style=&quot;font-size: 10px; line-height: 10px;&quot;&gt;Pediatria&lt;/font&gt;&lt;/div&gt;&lt;div&gt;&lt;font style=&quot;font-size: 10px; line-height: 10px;&quot;&gt;Clínica Geral&lt;/font&gt;&lt;/div&gt;&lt;div&gt;&lt;font style=&quot;font-size: 10px; line-height: 10px;&quot;&gt;Gastroenterologia&lt;/font&gt;&lt;/div&gt;&lt;div&gt;&lt;font style=&quot;font-size: 10px; line-height: 10px;&quot;&gt;Dermatologia&lt;/font&gt;&lt;/div&gt;" style="text;html=1;align=center;verticalAlign=middle;whiteSpace=wrap;rounded=0;" vertex="1" parent="WIyWlLk6GJQsqaUBKTNV-1">
          <mxGeometry x="383" y="115" width="60" height="30" as="geometry" />
        </mxCell>
        <mxCell id="idaOG2yB8s-ihM_PC1pQ-17" value="Generalistas" style="rounded=1;whiteSpace=wrap;html=1;" vertex="1" parent="WIyWlLk6GJQsqaUBKTNV-1">
          <mxGeometry x="163" y="220" width="120" height="60" as="geometry" />
        </mxCell>
        <mxCell id="idaOG2yB8s-ihM_PC1pQ-18" value="Residentes" style="rounded=1;whiteSpace=wrap;html=1;" vertex="1" parent="WIyWlLk6GJQsqaUBKTNV-1">
          <mxGeometry x="543" y="220" width="120" height="60" as="geometry" />
        </mxCell>
        <mxCell id="idaOG2yB8s-ihM_PC1pQ-24" value="Especialistas" style="rounded=1;whiteSpace=wrap;html=1;" vertex="1" parent="WIyWlLk6GJQsqaUBKTNV-1">
          <mxGeometry x="353" y="220" width="120" height="60" as="geometry" />
        </mxCell>
        <mxCell id="idaOG2yB8s-ihM_PC1pQ-25" value="" style="endArrow=none;html=1;rounded=0;exitX=0.75;exitY=0;exitDx=0;exitDy=0;entryX=0.5;entryY=1;entryDx=0;entryDy=0;" edge="1" parent="WIyWlLk6GJQsqaUBKTNV-1" source="idaOG2yB8s-ihM_PC1pQ-0" target="idaOG2yB8s-ihM_PC1pQ-18">
          <mxGeometry width="50" height="50" relative="1" as="geometry">
            <mxPoint x="490" y="310" as="sourcePoint" />
            <mxPoint x="540" y="260" as="targetPoint" />
          </mxGeometry>
        </mxCell>
        <mxCell id="idaOG2yB8s-ihM_PC1pQ-26" value="" style="endArrow=none;html=1;rounded=0;exitX=0.5;exitY=0;exitDx=0;exitDy=0;entryX=0.5;entryY=1;entryDx=0;entryDy=0;" edge="1" parent="WIyWlLk6GJQsqaUBKTNV-1" source="idaOG2yB8s-ihM_PC1pQ-0" target="idaOG2yB8s-ihM_PC1pQ-24">
          <mxGeometry width="50" height="50" relative="1" as="geometry">
            <mxPoint x="490" y="310" as="sourcePoint" />
            <mxPoint x="540" y="260" as="targetPoint" />
          </mxGeometry>
        </mxCell>
        <mxCell id="idaOG2yB8s-ihM_PC1pQ-27" value="" style="endArrow=none;html=1;rounded=0;exitX=0.25;exitY=0;exitDx=0;exitDy=0;entryX=0.5;entryY=1;entryDx=0;entryDy=0;" edge="1" parent="WIyWlLk6GJQsqaUBKTNV-1" source="idaOG2yB8s-ihM_PC1pQ-0" target="idaOG2yB8s-ihM_PC1pQ-17">
          <mxGeometry width="50" height="50" relative="1" as="geometry">
            <mxPoint x="490" y="310" as="sourcePoint" />
            <mxPoint x="540" y="260" as="targetPoint" />
            <Array as="points" />
          </mxGeometry>
        </mxCell>
        <mxCell id="idaOG2yB8s-ihM_PC1pQ-28" value="" style="endArrow=none;html=1;rounded=0;entryX=0.5;entryY=0;entryDx=0;entryDy=0;exitX=0.75;exitY=1;exitDx=0;exitDy=0;" edge="1" parent="WIyWlLk6GJQsqaUBKTNV-1" source="idaOG2yB8s-ihM_PC1pQ-6" target="idaOG2yB8s-ihM_PC1pQ-18">
          <mxGeometry width="50" height="50" relative="1" as="geometry">
            <mxPoint x="580" y="310" as="sourcePoint" />
            <mxPoint x="630" y="260" as="targetPoint" />
          </mxGeometry>
        </mxCell>
        <mxCell id="idaOG2yB8s-ihM_PC1pQ-29" value="" style="endArrow=none;html=1;rounded=0;entryX=0.5;entryY=1;entryDx=0;entryDy=0;exitX=0.5;exitY=0;exitDx=0;exitDy=0;" edge="1" parent="WIyWlLk6GJQsqaUBKTNV-1" source="idaOG2yB8s-ihM_PC1pQ-24" target="idaOG2yB8s-ihM_PC1pQ-6">
          <mxGeometry width="50" height="50" relative="1" as="geometry">
            <mxPoint x="465" y="180" as="sourcePoint" />
            <mxPoint x="613" y="230" as="targetPoint" />
          </mxGeometry>
        </mxCell>
        <mxCell id="idaOG2yB8s-ihM_PC1pQ-30" value="" style="endArrow=none;html=1;rounded=0;entryX=0.5;entryY=0;entryDx=0;entryDy=0;exitX=0.25;exitY=1;exitDx=0;exitDy=0;" edge="1" parent="WIyWlLk6GJQsqaUBKTNV-1" source="idaOG2yB8s-ihM_PC1pQ-6" target="idaOG2yB8s-ihM_PC1pQ-17">
          <mxGeometry width="50" height="50" relative="1" as="geometry">
            <mxPoint x="423" y="230" as="sourcePoint" />
            <mxPoint x="424" y="180" as="targetPoint" />
          </mxGeometry>
        </mxCell>
      </root>
    </mxGraphModel>
  </diagram>
</mxfile>
